solid voxel_model
  facet normal 0.0000 0.0000 1.0000
    outer loop
      vertex 5.0000 5.0000 5.0000
      vertex 6.0000 5.0000 5.0000
      vertex 6.0000 6.0000 5.0000
    endloop
  endfacet
  facet normal 0.0000 0.0000 1.0000
    outer loop
      vertex 5.0000 5.0000 5.0000
      vertex 6.0000 6.0000 5.0000
      vertex 5.0000 6.0000 5.0000
    endloop
  endfacet
  facet normal 0.0000 0.0000 -1.0000
    outer loop
      vertex 5.0000 5.0000 6.0000
      vertex 6.0000 6.0000 6.0000
      vertex 6.0000 5.0000 6.0000
    endloop
  endfacet
  facet normal 0.0000 0.0000 -1.0000
    outer loop
      vertex 5.0000 5.0000 6.0000
      vertex 5.0000 6.0000 6.0000
      vertex 6.0000 6.0000 6.0000
    endloop
  endfacet
  facet normal 0.0000 1.0000 0.0000
    outer loop
      vertex 5.0000 5.0000 5.0000
      vertex 5.0000 5.0000 6.0000
      vertex 6.0000 5.0000 6.0000
    endloop
  endfacet
  facet normal 0.0000 1.0000 0.0000
    outer loop
      vertex 5.0000 5.0000 5.0000
      vertex 6.0000 5.0000 6.0000
      vertex 6.0000 5.0000 5.0000
    endloop
  endfacet
  facet normal 0.0000 -1.0000 0.0000
    outer loop
      vertex 6.0000 6.0000 5.0000
      vertex 6.0000 6.0000 6.0000
      vertex 5.0000 6.0000 6.0000
    endloop
  endfacet
  facet normal 0.0000 -1.0000 0.0000
    outer loop
      vertex 6.0000 6.0000 5.0000
      vertex 5.0000 6.0000 6.0000
      vertex 5.0000 6.0000 5.0000
    endloop
  endfacet
  facet normal 1.0000 0.0000 0.0000
    outer loop
      vertex 5.0000 5.0000 5.0000
      vertex 5.0000 6.0000 5.0000
      vertex 5.0000 6.0000 6.0000
    endloop
  endfacet
  facet normal 1.0000 0.0000 0.0000
    outer loop
      vertex 5.0000 5.0000 5.0000
      vertex 5.0000 6.0000 6.0000
      vertex 5.0000 5.0000 6.0000
    endloop
  endfacet
  facet normal -1.0000 0.0000 0.0000
    outer loop
      vertex 6.0000 5.0000 5.0000
      vertex 6.0000 5.0000 6.0000
      vertex 6.0000 6.0000 6.0000
    endloop
  endfacet
  facet normal -1.0000 0.0000 0.0000
    outer loop
      vertex 6.0000 5.0000 5.0000
      vertex 6.0000 6.0000 6.0000
      vertex 6.0000 6.0000 5.0000
    endloop
  endfacet
endsolid voxel_model
